<?xml version="1.0" encoding="utf-8"?>
<!-- Generator: Adobe Illustrator 16.0.0, SVG Export Plug-In . SVG Version: 6.00 Build 0)  -->
<!DOCTYPE svg PUBLIC "-//W3C//DTD SVG 1.1//EN" "http://www.w3.org/Graphics/SVG/1.1/DTD/svg11.dtd">
<svg version="1.1" id="Layer_1" xmlns="http://www.w3.org/2000/svg" xmlns:xlink="http://www.w3.org/1999/xlink" x="0px" y="0px"
	 width="320px" height="320px" viewBox="49.25 -19 320 320" enable-background="new 49.25 -19 320 320" xml:space="preserve">
<g id="Layer_2" display="none">
	<rect x="-2" y="-2" display="inline" fill="#E9E9EA" width="1284" height="1284"/>
	<rect x="43.121" y="43.12" display="inline" fill="#FFFFFF" width="1193.758" height="1193.76"/>
</g>
<g>
	<g>
		<path fill="#FFFFFF" d="M209.275,297.475c-86.28,0-156.475-70.194-156.475-156.475S122.995-15.475,209.275-15.475
			S365.75,54.72,365.75,141S295.556,297.475,209.275,297.475z"/>
		<path fill="#7E7F82" d="M209.275-11.975c40.861,0,79.276,15.912,108.169,44.805C346.338,61.724,362.25,100.139,362.25,141
			c0,40.861-15.912,79.276-44.806,108.169c-28.893,28.894-67.308,44.806-108.169,44.806c-40.861,0-79.276-15.912-108.169-44.806
			C72.213,220.276,56.301,181.861,56.301,141c0-40.861,15.912-79.276,44.805-108.169S168.415-11.975,209.275-11.975 M209.275-18.975
			C120.924-18.975,49.301,52.648,49.301,141s71.623,159.975,159.975,159.975S369.25,229.352,369.25,141
			S297.627-18.975,209.275-18.975L209.275-18.975z"/>
	</g>
	<path fill="none" stroke="#7E7F82" stroke-width="7" stroke-linecap="round" stroke-miterlimit="10" d="M167.069,39.33v171.893
		c0,31.447,14.785,31.447,33.021,31.447h51.39"/>
</g>
</svg>
