<?xml version="1.0" encoding="utf-8"?>
<!-- Generator: Adobe Illustrator 16.0.0, SVG Export Plug-In . SVG Version: 6.00 Build 0)  -->
<!DOCTYPE svg PUBLIC "-//W3C//DTD SVG 1.1//EN" "http://www.w3.org/Graphics/SVG/1.1/DTD/svg11.dtd">
<svg version="1.1" id="Layer_1" xmlns="http://www.w3.org/2000/svg" xmlns:xlink="http://www.w3.org/1999/xlink" x="0px" y="0px"
	 width="640px" height="640px" viewBox="0 0 640 640" enable-background="new 0 0 640 640" xml:space="preserve">
<g>
	<g>
		<path fill="#FFFFFF" d="M320,636.167c-84.608,0-164.153-32.948-223.982-92.775C36.192,483.562,3.243,404.018,3.243,319.41
			c0-84.608,32.949-164.153,92.774-223.982C155.845,35.599,235.389,2.65,320,2.65c84.608,0,164.153,32.949,223.982,92.776
			c59.826,59.829,92.773,139.374,92.773,223.982c0,84.606-32.947,164.154-92.773,223.981
			C484.153,603.219,404.607,636.167,320,636.167z"/>
		<path fill="#77787B" d="M320,5.15c83.939,0,162.857,32.688,222.214,92.044c59.354,59.356,92.043,138.273,92.043,222.214
			c0,83.939-32.688,162.856-92.043,222.215C482.858,600.977,403.941,633.666,320,633.666s-162.858-32.688-222.215-92.042
			C38.43,482.267,5.742,403.35,5.742,319.409c0-83.941,32.688-162.858,92.043-222.214C157.14,37.839,236.057,5.15,320,5.15
			 M320,0.15c-85.278,0-165.451,33.208-225.75,93.509c-60.299,60.3-93.508,140.472-93.508,225.75
			c0,85.274,33.209,165.45,93.508,225.75c60.301,60.299,140.473,93.508,225.75,93.508s165.45-33.209,225.75-93.508
			c60.299-60.301,93.508-140.476,93.508-225.75c0-85.277-33.209-165.449-93.508-225.75C485.449,33.359,405.275,0.15,320,0.15
			L320,0.15z"/>
	</g>
	<g>
		<g>
			<path fill="none" stroke="#77787B" stroke-width="5" stroke-linecap="round" stroke-miterlimit="10" d="M346.114,422.17V307.878
				c0-20.91-21.946-20.91-49.021-20.91h-17.592"/>
			<path fill="none" stroke="#77787B" stroke-width="5" stroke-linecap="round" stroke-miterlimit="10" d="M279.502,278.226V422.17"
				/>
		</g>
		<g>
			<path fill="none" stroke="#77787B" stroke-width="5" stroke-linecap="round" stroke-miterlimit="10" d="M378.29,289.833V392.82
				c0,21.049,21.945,21.049,49.021,21.05h17.592"/>
			<path fill="none" stroke="#77787B" stroke-width="5" stroke-linecap="round" stroke-miterlimit="10" d="M444.902,422.67V277.776"
				/>
		</g>
		<g>
			<path fill="none" stroke="#77787B" stroke-width="5" stroke-linecap="round" stroke-miterlimit="10" d="M233.926,277.124V423.67"
				/>
			<path fill="none" stroke="#77787B" stroke-width="5" stroke-linecap="round" stroke-miterlimit="10" d="M233.926,248.608v7.019"
				/>
		</g>
		<path fill="none" stroke="#77787B" stroke-width="5" stroke-linecap="round" stroke-miterlimit="10" d="M113.87,218.33v171.893
			c0,31.447,14.785,31.447,33.021,31.447h51.392"/>
		<g>
			<path fill="none" stroke="#77787B" stroke-width="5" stroke-linecap="round" stroke-miterlimit="10" d="M476.105,221.572V423.17"
				/>
			<path fill="none" stroke="#77787B" stroke-width="5" stroke-linecap="round" stroke-miterlimit="10" d="M476.105,318.735
				c0,0,13.421-0.079,18.379-0.079c27.183,0,36.778-6.091,35.516-19.315c-0.835-8.74-7-14.663-13.688-12.019
				c-11.479,4.539-6.281,18.025-6.281,18.025"/>
			
				<line fill="none" stroke="#77787B" stroke-width="5" stroke-linecap="round" stroke-miterlimit="10" x1="516.927" y1="327.215" x2="548.834" y2="423.17"/>
		</g>
	</g>
</g>
<g id="Layer_2_1_" display="none">
</g>
</svg>
