<?xml version="1.0" encoding="utf-8"?>
<!-- Generator: Adobe Illustrator 16.0.0, SVG Export Plug-In . SVG Version: 6.00 Build 0)  -->
<!DOCTYPE svg PUBLIC "-//W3C//DTD SVG 1.1//EN" "http://www.w3.org/Graphics/SVG/1.1/DTD/svg11.dtd">
<svg version="1.1" id="Layer_1" xmlns="http://www.w3.org/2000/svg" xmlns:xlink="http://www.w3.org/1999/xlink" x="0px" y="0px"
	 width="481.5px" height="229px" viewBox="0 -12 481.5 229" enable-background="new 0 -12 481.5 229" xml:space="preserve">
<g id="Layer_2" display="none">
	<rect x="-2" y="-2" display="inline" fill="#E9E9EA" width="1284" height="1284"/>
	<rect x="43.121" y="43.12" display="inline" fill="#FFFFFF" width="1193.758" height="1193.76"/>
</g>
<g>
	<g>
		<path fill="none" stroke="#7E7F82" stroke-width="7" stroke-linecap="round" stroke-miterlimit="10" d="M272.438,209.67V95.379
			c0-20.909-21.944-20.909-49.02-20.909h-17.592"/>
		<path fill="none" stroke="#7E7F82" stroke-width="7" stroke-linecap="round" stroke-miterlimit="10" d="M205.826,65.727V209.67"/>
	</g>
	<g>
		<path fill="none" stroke="#7E7F82" stroke-width="7" stroke-linecap="round" stroke-miterlimit="10" d="M304.613,77.334v102.988
			c0,21.047,21.944,21.047,49.021,21.049h17.59"/>
		<path fill="none" stroke="#7E7F82" stroke-width="7" stroke-linecap="round" stroke-miterlimit="10" d="M371.227,210.17V65.276"/>
	</g>
	<g>
		<path fill="none" stroke="#7E7F82" stroke-width="7" stroke-linecap="round" stroke-miterlimit="10" d="M160.25,64.623V211.17"/>
		<path fill="none" stroke="#7E7F82" stroke-width="7" stroke-linecap="round" stroke-miterlimit="10" d="M160.25,36.108v7.019"/>
	</g>
	<path fill="none" stroke="#7E7F82" stroke-width="7" stroke-linecap="round" stroke-miterlimit="10" d="M40.194,5.83v171.893
		c0,31.447,14.785,31.447,33.021,31.447h51.391"/>
	<g>
		<path fill="none" stroke="#7E7F82" stroke-width="7" stroke-linecap="round" stroke-miterlimit="10" d="M402.43,9.072V210.67"/>
		<path fill="none" stroke="#7E7F82" stroke-width="7" stroke-linecap="round" stroke-miterlimit="10" d="M402.43,106.235
			c0,0,13.42-0.079,18.379-0.079c27.184,0,36.779-6.091,35.518-19.314c-0.837-8.74-7-14.663-13.688-12.02
			c-11.479,4.539-6.28,18.025-6.28,18.025"/>
		
			<line fill="none" stroke="#7E7F82" stroke-width="7" stroke-linecap="round" stroke-miterlimit="10" x1="443.25" y1="114.715" x2="475.158" y2="210.67"/>
	</g>
</g>
</svg>
