<?xml version="1.0" encoding="utf-8"?>
<!-- Generator: Adobe Illustrator 16.0.0, SVG Export Plug-In . SVG Version: 6.00 Build 0)  -->
<!DOCTYPE svg PUBLIC "-//W3C//DTD SVG 1.1//EN" "http://www.w3.org/Graphics/SVG/1.1/DTD/svg11.dtd">
<svg version="1.1" xmlns="http://www.w3.org/2000/svg" xmlns:xlink="http://www.w3.org/1999/xlink" x="0px" y="0px" width="640px"
	 height="640px" viewBox="0 0 640 640" enable-background="new 0 0 640 640" xml:space="preserve">
<g id="Layer_1">
	<g id="Layer_2" display="none">
		<rect x="-2" y="-2" display="inline" fill="#E9E9EA" width="1284" height="1284"/>
		<rect x="43.121" y="43.12" display="inline" fill="#FFFFFF" width="1193.758" height="1193.76"/>
	</g>
	<g>
		<g>
			<g>
				<path fill="#FFFFFF" d="M319.258,636.167c-84.608,0-164.153-32.948-223.982-92.775C35.449,483.562,2.5,404.018,2.5,319.409
					c0-84.608,32.949-164.153,92.776-223.982C155.103,35.599,234.647,2.65,319.258,2.65c84.609,0,164.154,32.949,223.983,92.776
					c59.827,59.829,92.775,139.374,92.775,223.982c0,84.608-32.948,164.154-92.775,223.983
					C483.412,603.219,403.866,636.167,319.258,636.167z"/>
				<path fill="#77787B" d="M319.258,5.15c83.941,0,162.858,32.688,222.215,92.044c59.354,59.356,92.043,138.273,92.043,222.214
					c0,83.941-32.688,162.858-92.043,222.215c-59.357,59.354-138.274,92.043-222.215,92.043S156.4,600.979,97.044,541.624
					C37.688,482.267,5,403.35,5,319.409c0-83.94,32.688-162.858,92.044-222.214C156.398,37.839,235.315,5.15,319.258,5.15
					 M319.258,0.15c-85.278,0-165.451,33.208-225.75,93.509C33.209,153.959,0,234.131,0,319.409
					c0,85.276,33.209,165.45,93.509,225.75c60.3,60.299,140.472,93.508,225.75,93.508c85.277,0,165.45-33.209,225.75-93.508
					c60.299-60.301,93.508-140.474,93.508-225.75c0-85.277-33.209-165.449-93.508-225.75C484.708,33.359,404.534,0.15,319.258,0.15
					L319.258,0.15z"/>
			</g>
		</g>
		<g id="Layer_1_1_">
			<g>
				<path fill="none" stroke="#77787B" stroke-width="5" stroke-miterlimit="10" d="M218.643,218.33v171.893
					c0,31.447-21.948,31.447-49.023,31.447h-17.588"/>
				<path fill="none" stroke="#77787B" stroke-width="5" stroke-miterlimit="10" d="M493.27,421.67V285.188
					c0-24.97-21.946-24.97-49.021-24.97h-17.591"/>
				<path fill="none" stroke="#77787B" stroke-width="5" stroke-miterlimit="10" d="M381.082,249.778V421.67"/>
				<path fill="none" stroke="#77787B" stroke-width="5" stroke-miterlimit="10" d="M426.657,249.778V421.67"/>
				<path fill="none" stroke="#77787B" stroke-width="5" stroke-miterlimit="10" d="M381.082,218.33v8.233"/>
				<path fill="none" stroke="#77787B" stroke-width="5" stroke-miterlimit="10" d="M261.026,218.33v171.893
					c0,31.447,14.785,31.447,33.021,31.447h51.391"/>
			</g>
		</g>
	</g>
</g>
<g id="Layer_2_1_" display="none">
	
		<image display="inline" overflow="visible" opacity="0.5" width="662" height="608" xlink:href="Screen Shot 2017-10-09 at 11.02.19.png"  transform="matrix(1.0461 0 0 1.0461 -50.252 0)">
	</image>
</g>
</svg>
